<?xml version="1.0" standalone="no"?><!DOCTYPE svg PUBLIC "-//W3C//DTD SVG 1.1//EN" "http://www.w3.org/Graphics/SVG/1.1/DTD/svg11.dtd"><svg t="1698561176945" class="icon" viewBox="0 0 1024 1024" version="1.1" xmlns="http://www.w3.org/2000/svg" p-id="2975" xmlns:xlink="http://www.w3.org/1999/xlink" width="200" height="200"><path d="M644.266667 184.888889H280.177778c-22.755556 0-42.666667 12.8-52.622222 34.133333L132.266667 433.777778c-17.066667 38.4-25.6 78.222222-25.6 119.466666v12.8c0 31.288889 25.6 56.888889 56.888889 56.888889h270.222222l-31.288889 146.488889c-11.377778 55.466667 55.466667 92.444444 95.288889 52.622222l184.888889-184.888888c11.377778-11.377778 17.066667-25.6 17.066666-39.822223V241.777778c1.422222-31.288889-24.177778-56.888889-55.466666-56.888889z m-184.888889 595.911111l31.288889-146.488889c7.111111-35.555556-19.911111-68.266667-55.466667-68.266667h-270.222222c0-41.244444 8.533333-82.488889 25.6-119.466666L280.177778 241.777778h364.088889v354.133333l-184.888889 184.888889zM746.666667 241.777778v284.444444c0 31.288889 25.6 56.888889 56.888889 56.888889h56.888888c31.288889 0 56.888889-25.6 56.888889-56.888889V241.777778c0-31.288889-25.6-56.888889-56.888889-56.888889h-56.888888c-31.288889 0-56.888889 25.6-56.888889 56.888889z m113.777777 284.444444h-56.888888V241.777778h56.888888v284.444444z" p-id="2976"></path></svg>