<?xml version="1.0" standalone="no"?><!DOCTYPE svg PUBLIC "-//W3C//DTD SVG 1.1//EN" "http://www.w3.org/Graphics/SVG/1.1/DTD/svg11.dtd"><svg t="1698561342655" class="icon" viewBox="0 0 1024 1024" version="1.1" xmlns="http://www.w3.org/2000/svg" p-id="3114" xmlns:xlink="http://www.w3.org/1999/xlink" width="200" height="200"><path d="M554.666667 896c-72.533333 0-128-55.466667-128-128v-42.666667c0-72.533333-55.466667-128-128-128H170.666667c-46.933333 0-85.333333-38.4-85.333334-85.333333V213.333333c0-46.933333 38.4-85.333333 85.333334-85.333333h85.333333c29.866667 0 51.2 12.8 68.266667 34.133333 29.866667-21.333333 64-34.133333 102.4-34.133333h298.666666c55.466667-4.266667 110.933333 42.666667 128 119.466667l42.666667 213.333333v8.533333c0 72.533333-55.466667 128-128 128h-85.333333v170.666667c0 72.533333-55.466667 128-128 128z m-213.333334-379.733333c98.133333 21.333333 170.666667 106.666667 170.666667 209.066666v42.666667c0 25.6 17.066667 42.666667 42.666667 42.666667s42.666667-17.066667 42.666666-42.666667v-213.333333c0-25.6 17.066667-42.666667 42.666667-42.666667h128c21.333333 0 42.666667-17.066667 42.666667-38.4l-42.666667-209.066667c-8.533333-34.133333-25.6-51.2-38.4-51.2H426.666667c-46.933333 0-85.333333 38.4-85.333334 85.333334v217.6zM170.666667 213.333333v298.666667h85.333333V213.333333H170.666667z" p-id="3115"></path></svg>